<?xml version="1.0" encoding="UTF-8"?>
<svg id="Layer_2" data-name="Layer 2" xmlns="http://www.w3.org/2000/svg" viewBox="0 0 517.3 155.74">
  <g id="Layer_1-2" data-name="Layer 1">
    <g>
      <g>
        <path fill="#231f20" stroke-width="0" d="m190.68,110.78h30.42v15.38h-48.94V29.44h18.52v81.34Z"/>
        <path fill="#231f20" stroke-width="0" d="m228.38,77.52c0-28.96,21.3-49.47,47.36-49.47s47.22,20.51,47.22,49.47-21.03,49.61-47.22,49.61-47.36-20.51-47.36-49.61Zm75.53,0c0-19.68-11.51-32.01-28.17-32.01s-28.31,12.33-28.31,32.01,11.51,32.29,28.31,32.29,28.17-12.61,28.17-32.29Z"/>
        <path fill="#231f20" stroke-width="0" d="m411.2,29.44l-38.1,47.94,39.15,48.78h-23.41l-33.6-43.09v43.09h-18.52V29.44h18.52v43.37l33.6-43.37h22.35Z"/>
        <path fill="#231f20" stroke-width="0" d="m481.04,107.73h-36.77l-6.08,18.43h-19.44l33.2-96.86h21.56l33.2,96.86h-19.58l-6.08-18.43Zm-18.39-55.98l-13.36,40.46h26.72l-13.36-40.46Z"/>
      </g>
      <g>
        <g>
          <path fill="#0d5df3" stroke-width="0" d="m49.58,40.42h-.1c-4.08,0-7.38,3.31-7.38,7.38v59.53c0,4.11,3.33,7.44,7.44,7.44s7.43-3.33,7.43-7.43v-59.53c0-4.08-3.31-7.38-7.38-7.38Z"/>
          <path fill="#0d5df3" stroke-width="0" d="m133.33,9.38H28.6c-8.75,0-15.85,7.1-15.85,15.85v104.73c0,8.75,7.1,15.85,15.85,15.85h104.73c8.75,0,15.85-7.1,15.85-15.85V25.23c0-8.75-7.1-15.85-15.85-15.85Zm-3.5,105.38c-.65,2.06-1.56,4-2.7,5.79-3.68,5.77-10.23,9.08-17.07,9.08H38.14c-6.03,0-10.91-4.89-10.91-10.91V39.9c0-7.93,6.43-14.36,14.36-14.36h25.39c2.68,0,4.86,2.17,4.86,4.86v78.64c0,3.16,2.56,5.72,5.72,5.72h31.46c4.9,0,8.68-4.72,7.05-9.86-.96-3.03-3.87-5.01-7.05-5.01h-19.61c-1.49,0-2.7-1.21-2.7-2.7v-9.18c0-1.65,1.34-2.99,2.99-2.99h21.68c4.66,0,9.22,1.74,12.5,5.05,2.69,2.73,4.75,6.08,5.94,9.82.75,2.35,1.16,4.86,1.16,7.46s-.4,5.07-1.14,7.41Zm1.48-62.89c0,10.09-8.18,18.28-18.28,18.28h-24.24c-1.15,0-2.09-.93-2.09-2.09v-24.24c0-10.09,8.18-18.28,18.28-18.28h24.24c1.15,0,2.09.93,2.09,2.09v24.24Z"/>
        </g>
        <path fill="#0d5df3" stroke-width="0" d="m114.93,40.42h-8.25c-2.82,0-5.11,2.29-5.11,5.11v8.25c0,.83.68,1.51,1.51,1.51h8.25c2.82,0,5.11-2.29,5.11-5.11v-8.25c0-.83-.68-1.51-1.51-1.51Z"/>
      </g>
      <rect fill="none" stroke-width="0" width="517.3" height="155.74"/>
    </g>
  </g>
</svg>
